#N canvas 827 239 734 565 12;
#X obj 290 2 netreceive -u -b 3030;
#X obj 760 1159 netsend -u -b;
#X msg 800 1117 connect 127.0.0.1 5000;
#X obj 760 1071 oscformat toRLosc;
#X floatatom 760 944 5 0 0 0 - - - 12;
#X floatatom 806 944 5 0 0 0 - - - 12;
#X floatatom 853 945 5 0 0 0 - - - 12;
#X floatatom 901 945 5 0 0 0 - - - 12;
#X floatatom 947 945 5 0 0 0 - - - 12;
#X floatatom 994 946 5 0 0 0 - - - 12;
#X floatatom 1040 946 5 0 0 0 - - - 12;
#X floatatom 1087 947 5 0 0 0 - - - 12;
#X obj 760 1015 pack 0 0 0 0 0 0 0 0;
#X text 921 1014 Observations \;;
#X text 225 185 Actions;
#X floatatom 760 876 8 0 0 0 - - - 16;
#X obj 553 227 vsl 29 132 0 127 0 0 empty empty empty 0 -9 0 10 #e4e4e4 #4d4d4d #373737 0 1;
#X obj 290 47 oscparse;
#X listbox 290 75 28 0 0 0 - - - 0;
#X obj 290 102 list trim;
#X obj 290 133 route fromRLosc;
#X obj 553 188 route reward;
#X listbox 290 186 11 0 0 0 - - - 36;
#X text 345 637 <-- latent space;
#X obj 44 565 vsl 19 162 -10 10 0 0 empty empty empty 0 -9 0 12 #fcfcfc #000000 #000000 0 1;
#X text 19 556 10;
#X text 26 637 0;
#X text 12 719 -10;
#X obj 75 565 vsl 19 162 -10 10 0 0 empty empty empty 0 -9 0 12 #fcfcfc #000000 #000000 0 1;
#X obj 107 565 vsl 19 162 -10 10 0 0 empty empty empty 0 -9 0 12 #fcfcfc #000000 #000000 0 1;
#X obj 139 565 vsl 19 162 -10 10 0 0 empty empty empty 0 -9 0 12 #fcfcfc #000000 #000000 0 1;
#X obj 581 687 dac~;
#N canvas 237 262 668 332 snapshotall 1;
#X obj 49 158 snapshot~;
#X obj 139 158 snapshot~;
#X obj 230 158 snapshot~;
#X obj 323 158 snapshot~;
#X obj 49 182 outlet;
#X obj 139 182 outlet;
#X obj 230 182 outlet;
#X obj 323 182 outlet;
#X obj 49 44 inlet~;
#X obj 332 8 route enable;
#X obj 332 -16 r \$0-nn;
#X obj 426 158 snapshot~;
#X obj 516 158 snapshot~;
#X obj 607 158 snapshot~;
#X obj 700 158 snapshot~;
#X obj 426 182 outlet;
#X obj 516 182 outlet;
#X obj 607 182 outlet;
#X obj 700 182 outlet;
#X obj 49 101 snake~ out 8, f 97;
#X obj 441 -26 inlet;
#X obj 332 37 metro 35;
#X connect 0 0 4 0;
#X connect 1 0 5 0;
#X connect 2 0 6 0;
#X connect 3 0 7 0;
#X connect 8 0 19 0;
#X connect 9 0 21 0;
#X connect 10 0 9 0;
#X connect 11 0 15 0;
#X connect 12 0 16 0;
#X connect 13 0 17 0;
#X connect 14 0 18 0;
#X connect 19 0 0 0;
#X connect 19 1 1 0;
#X connect 19 2 2 0;
#X connect 19 3 3 0;
#X connect 19 4 11 0;
#X connect 19 5 12 0;
#X connect 19 6 13 0;
#X connect 19 7 14 0;
#X connect 20 0 21 0;
#X connect 21 0 2 0;
#X connect 21 0 3 0;
#X connect 21 0 1 0;
#X connect 21 0 0 0;
#X connect 21 0 11 0;
#X connect 21 0 12 0;
#X connect 21 0 13 0;
#X connect 21 0 14 0;
#X restore 117 356 pd snapshotall;
#X f 27;
#X obj 143 820 nn~ -m -g nasa decode;
#X obj 26 488 +;
#X obj 82 488 +, f 5;
#X obj 139 488 +;
#X obj 196 488 +;
#X obj 249 488 +;
#X obj 305 488 +, f 5;
#X obj 362 488 +;
#X obj 419 488 +;
#X obj 178 565 vsl 19 162 -10 10 0 0 empty empty empty 0 -9 0 12 #fcfcfc #000000 #000000 0 1;
#X obj 209 565 vsl 19 162 -10 10 0 0 empty empty empty 0 -9 0 12 #fcfcfc #000000 #000000 0 1;
#X obj 241 565 vsl 19 162 -10 10 0 0 empty empty empty 0 -9 0 12 #fcfcfc #000000 #000000 0 1;
#X obj 273 565 vsl 19 162 -10 10 0 0 empty empty empty 0 -9 0 12 #fcfcfc #000000 #000000 0 1;
#X obj 142 796 snake~ in 8;
#X text 542 368 Reward;
#X obj 690 517 nn~ -m -g musicnet forward;
#X obj 5 856 scope~ 109 42 256 3 128 -1 1 0 0 0 0 77 77 77 228 228 228 183 183 183 0 empty;
#X obj 895 639 abs~;
#X obj 895 728 snapshot~;
#X obj 1043 644 tgl 25 0 empty empty empty 17 7 0 10 #e4e4e4 #4d4d4d #373737 0 1;
#X obj 927 763 vsl 63 91 0 1 0 0 empty empty empty 0 -9 0 10 #e4e4e4 #4d4d4d #373737 0 1;
#X floatatom 443 551 5 0 0 0 - - - 12;
#X obj 318 369 unpack 0 0 0 0 0 0 0 0;
#X obj 168 879 throw~ environment;
#X obj 594 416 catch~ environment;
#X obj 680 673 throw~ environment;
#X obj 797 441 scope~ 89 40 256 3 128 -1 1 0 0 0 0 77 77 77 228 228 228 183 183 183 0 empty;
#X floatatom 48 381 5 0 0 0 - - - 12;
#X obj 343 298 tgl 25 0 empty empty empty 17 7 0 10 #e4e4e4 #4d4d4d #373737 0 1;
#X floatatom 648 254 10 0 0 0 - - - 16;
#X obj 1057 1121 loadbang;
#X obj 513 818 abs~;
#X obj 513 860 slide~ 100 10000;
#X obj 513 907 snapshot~;
#X obj 398 950 tgl 25 0 empty empty empty 17 7 0 10 #e4e4e4 #4d4d4d #373737 0 1;
#X obj 895 681 slide~ 100 50000;
#X obj 398 1002 metro 35;
#X obj 1043 696 metro 35;
#X obj 585 631 *~ 0.5;
#X obj 734 583 scope~ 89 40 256 3 128 -1 1 0 0 0 0 77 77 77 228 228 228 183 183 183 0 empty;
#X obj 910 182 tgl 25 0 empty empty empty 17 7 0 10 #e4e4e4 #4d4d4d #373737 0 1;
#X text 942 181 Run \;;
#X connect 0 0 17 0;
#X connect 2 0 1 0;
#X connect 3 0 1 0;
#X connect 4 0 12 0;
#X connect 5 0 12 1;
#X connect 6 0 12 2;
#X connect 7 0 12 3;
#X connect 8 0 12 4;
#X connect 9 0 12 5;
#X connect 10 0 12 6;
#X connect 11 0 12 7;
#X connect 12 0 3 0;
#X connect 15 0 4 0;
#X connect 17 0 18 0;
#X connect 18 0 19 0;
#X connect 19 0 20 0;
#X connect 19 0 21 0 32.................H....bP....B....GD...LD....;
#X connect 20 0 22 0;
#X connect 21 0 16 0;
#X connect 21 0 62 0;
#X connect 22 0 55 0;
#X connect 24 0 46 0;
#X connect 28 0 46 1;
#X connect 29 0 46 2;
#X connect 30 0 46 3;
#X connect 32 0 60 0;
#X connect 32 0 34 1;
#X connect 32 1 35 1;
#X connect 32 2 36 1;
#X connect 32 3 37 1;
#X connect 32 4 38 1;
#X connect 32 5 39 1;
#X connect 32 6 40 1;
#X connect 32 7 41 1;
#X connect 33 0 56 0;
#X connect 33 0 64 0;
#X connect 33 0 49 0;
#X connect 34 0 24 0;
#X connect 35 0 28 0;
#X connect 36 0 29 0;
#X connect 37 0 30 0;
#X connect 38 0 42 0;
#X connect 39 0 43 0;
#X connect 40 0 44 0;
#X connect 41 0 45 0;
#X connect 41 0 54 0;
#X connect 42 0 46 4;
#X connect 43 0 46 5;
#X connect 44 0 46 6;
#X connect 45 0 46 7;
#X connect 46 0 33 0;
#X connect 48 0 50 0;
#X connect 48 0 58 0;
#X connect 48 0 72 0;
#X connect 50 0 68 0;
#X connect 51 0 15 0;
#X connect 51 0 53 0;
#X connect 52 0 70 0;
#X connect 55 0 34 0;
#X connect 55 1 35 0;
#X connect 55 2 36 0;
#X connect 55 3 37 0;
#X connect 55 4 38 0;
#X connect 55 5 39 0;
#X connect 55 6 40 0;
#X connect 55 7 41 0;
#X connect 57 0 71 0;
#X connect 57 0 59 0;
#X connect 57 0 48 0;
#X connect 61 0 32 1;
#X connect 63 0 2 0;
#X connect 64 0 65 0;
#X connect 65 0 66 0;
#X connect 66 0 5 0;
#X connect 67 0 69 0;
#X connect 68 0 51 0;
#X connect 69 0 66 0;
#X connect 70 0 51 0;
#X connect 71 0 31 0;
#X connect 71 0 31 1;
#X connect 73 0 52 0;
#X connect 73 0 61 0;
#X connect 73 0 67 0;
